<svg width="17" height="17" viewBox="0 0 17 17" fill="none" xmlns="http://www.w3.org/2000/svg">
<path d="M6.375 6.75C6.375 6.95711 6.20711 7.125 6 7.125C5.79289 7.125 5.625 6.95711 5.625 6.75M6.375 6.75C6.375 6.54289 6.20711 6.375 6 6.375C5.79289 6.375 5.625 6.54289 5.625 6.75M6.375 6.75H5.625M10.875 6.75C10.875 6.95711 10.7071 7.125 10.5 7.125C10.2929 7.125 10.125 6.95711 10.125 6.75M10.875 6.75C10.875 6.54289 10.7071 6.375 10.5 6.375C10.2929 6.375 10.125 6.54289 10.125 6.75M10.875 6.75H10.125M11.2502 10.5C10.566 11.4108 9.47677 12 8.24991 12C7.02304 12 5.93379 11.4108 5.24963 10.5M8.25 15.75C4.10786 15.75 0.75 12.3921 0.75 8.25C0.75 4.10786 4.10786 0.75 8.25 0.75C12.3921 0.75 15.75 4.10786 15.75 8.25C15.75 12.3921 12.3921 15.75 8.25 15.75Z" stroke="black" stroke-width="1.5" stroke-linecap="round" stroke-linejoin="round"/>
</svg>
